<svg width="177" height="54" viewBox="0 0 177 54" fill="none" xmlns="http://www.w3.org/2000/svg">
<path d="M7.7663 24.8075L10.3994 23.4743L14.5222 17.1538L15.7973 16.6185L17.2217 22.9746L15.4322 23.253L14.0426 20.6484L13.0567 24.7584L17.5792 24.7164L22.2837 25.8942L24.1496 24.6554L27.3376 27.9413L28.6462 21.8215L30.8858 24.0693L32.2333 22.1372L34.4462 21.5059L37.6603 18.4223L38.1585 16.9343L40.8078 17.346L41.9309 18.8189L40.0072 23.0248L44.8475 20.4496L44.8361 19.2281L46.7093 18.7745L48.7767 20.8493L50.8011 18.3002L50.7849 16.5553L54.0909 14.1688L55.4375 12.1495L57.5708 12.1297L61.2532 4.3301L64.4641 0.897448L65.6766 2.80574L63.822 5.26602L64.5192 6.83008L66.3144 7.16242L67.8249 13.605L67.8752 19.0142L70.4683 22.5675L71.7944 27.5285L67.3305 24.6907L65.291 16.4206L64.0988 16.6935L63.98 22.2787L60.7869 27.6307L59.9236 35.7532L62.147 36.2561L63.0751 35.1132L65.231 37.5362L66.9204 44.8497L66.7934 49.5625L64.7455 49.5815L63.916 42.958L62.484 44.9781L59.3203 44.3095L56.7402 42.1522L53.8487 43.226L54.0631 47.9357L51.7649 48.5678L48.376 51.2168L44.2753 50.7314L42.6451 49.7867L40.0893 50.2467L40.9523 51.2857L38.9157 52.5262L37.2872 51.756L34.2283 53.1805L29.5132 50.8684L27.6824 46.6973L26.1481 46.8861L24.3424 45.4196L24.2466 44.2862L18.5238 43.7285L17.6143 46.8781L14.0151 45.2537L12.1948 42.2168L8.35498 42.2524L7.9737 47.1421L5.7616 47.8607L4.69363 52.3204L3.83304 51.5432L0.162509 42.2413L4.40955 40.1078L3.68884 36.0136L2.96732 31.8322L4.81946 29.1102L4.20676 27.4581L6.74072 24.6425L7.7663 24.8075ZM64.6062 34.5754L68.5864 40.4716L69.8615 39.9363L68.2176 37.5085L64.5981 33.703L64.6062 34.5754ZM24.3894 22.9081L24.3732 21.1632L27.3395 18.9544L29.8872 17.6219L26.9007 17.6496L24.27 19.2446L22.6626 20.7428L22.6828 22.9239L24.3894 22.9081Z" fill="white"/>
<path d="M89.9924 41.6626L94.7154 41.6188L94.6673 36.4372L97.2836 36.4129C101.251 36.376 103.888 34.0077 103.853 30.2493C103.818 26.5336 101.205 24.1032 97.3395 24.1391L89.8303 24.2088L89.9924 41.6626ZM94.6331 32.7555L94.5884 27.9489L96.2534 27.9334C97.9098 27.918 98.9119 28.7951 98.9259 30.2951C98.9397 31.7865 97.9545 32.7247 96.298 32.74L94.6331 32.7555Z" fill="white"/>
<path d="M111.766 41.6991C116.014 41.6596 118.503 38.9091 118.465 34.8866C118.428 30.864 115.888 28.1602 111.641 28.1997C107.394 28.2391 104.905 30.9896 104.942 35.0122C104.979 39.0347 107.519 41.7385 111.766 41.6991ZM111.768 38.2216C110.511 38.2333 109.752 36.9875 109.732 34.9336C109.713 32.8797 110.449 31.62 111.707 31.6083C112.896 31.5972 113.655 32.8431 113.674 34.897C113.693 36.9509 112.957 38.2106 111.768 38.2216Z" fill="white"/>
<path d="M126.717 41.5603C130.582 41.5244 132.931 39.278 132.95 35.8089L128.601 35.8493C128.511 37.2224 127.779 37.9707 126.751 37.9802C125.52 37.9917 124.703 36.9424 124.683 34.7948C124.663 32.6471 125.46 31.5828 126.692 31.5714C127.728 31.5618 128.44 32.2967 128.58 33.6676L132.93 33.6272C132.872 30.2185 130.431 28.0252 126.591 28.0608C122.344 28.1003 119.855 30.8508 119.892 34.8733C119.93 38.8959 122.469 41.5997 126.717 41.5603Z" fill="white"/>
<path d="M141.223 41.4255C145.088 41.3897 147.438 39.1433 147.457 35.6742L143.107 35.7146C143.018 37.0877 142.286 37.836 141.258 37.8455C140.026 37.857 139.21 36.8077 139.19 34.66C139.17 32.5124 139.967 31.4481 141.199 31.4367C142.235 31.4271 142.947 32.162 143.087 33.5329L147.436 33.4925C147.379 30.0838 144.938 27.8905 141.098 27.9261C136.851 27.9656 134.362 30.7161 134.399 34.7386C134.436 38.7612 136.976 41.465 141.223 41.4255Z" fill="white"/>
<path d="M153.803 35.0698L153.737 27.9792L149.32 28.0202L149.442 41.1106L153.859 41.0696L157.429 33.9111L157.495 41.0358L161.912 40.9948L161.79 27.9044L157.373 27.9455L153.803 35.0698Z" fill="white"/>
<path d="M171.808 40.9029L176.157 40.8625L176.036 27.7722L169.92 27.829C166.157 27.8639 163.796 29.795 163.846 32.4537C163.843 33.9453 164.746 35.1728 166.316 35.8912L163.789 40.9774L168.104 40.9373L170.264 36.5875L171.768 36.5735L171.808 40.9029ZM171.742 33.7441L170.077 33.7596C168.828 33.7712 168.245 33.1629 168.265 32.5832C168.234 32.038 168.771 31.3511 169.952 31.3402L171.719 31.3238L171.742 33.7441Z" fill="white"/>
</svg>
